<svg width="420" height="100" viewBox="0 0 420 100" fill="none" xmlns="http://www.w3.org/2000/svg">
<path d="M105.472 56.712L117.136 75H105.616L95.032 59.016H88.408V75H78.544V59.376L88.48 49.44H95.464C96.952 49.44 98.2 49.2 99.208 48.72C100.216 48.192 101.008 47.544 101.584 46.776C102.16 46.008 102.568 45.216 102.808 44.4C103.048 43.536 103.168 42.744 103.168 42.024C103.168 41.496 103.072 40.824 102.88 40.008C102.736 39.144 102.424 38.28 101.944 37.416C101.8 37.128 101.608 36.84 101.368 36.552L108.424 29.496C110.056 30.936 111.28 32.664 112.096 34.68C112.96 36.744 113.392 39.072 113.392 41.664C113.392 43.728 113.08 45.792 112.456 47.856C111.88 49.872 110.896 51.72 109.504 53.4C108.4 54.696 107.056 55.8 105.472 56.712ZM95.536 34.32H88.408V42.456L78.544 52.392V24.744H93.736C96.904 24.744 99.712 25.152 102.16 25.968C102.832 26.16 103.504 26.424 104.176 26.76L96.544 34.392C96.208 34.344 95.872 34.32 95.536 34.32Z" fill="url(#paint0_linear_124_382)"/>
<path d="M46.528 56.712L34.864 75H46.384L56.968 59.016H63.592V75H73.456V59.376L63.52 49.44H56.536C55.048 49.44 53.8 49.2 52.792 48.72C51.784 48.192 50.992 47.544 50.416 46.776C49.84 46.008 49.432 45.216 49.192 44.4C48.952 43.536 48.832 42.744 48.832 42.024C48.832 41.496 48.928 40.824 49.12 40.008C49.264 39.144 49.576 38.28 50.056 37.416C50.2 37.128 50.392 36.84 50.632 36.552L43.576 29.496C41.944 30.936 40.72 32.664 39.904 34.68C39.04 36.744 38.608 39.072 38.608 41.664C38.608 43.728 38.92 45.792 39.544 47.856C40.12 49.872 41.104 51.72 42.496 53.4C43.6 54.696 44.944 55.8 46.528 56.712ZM56.464 34.32H63.592V42.456L73.456 52.392V24.744H58.264C55.096 24.744 52.288 25.152 49.84 25.968C49.168 26.16 48.496 26.424 47.824 26.76L55.456 34.392C55.792 34.344 56.128 34.32 56.464 34.32Z" fill="url(#paint1_linear_124_382)"/>
<path d="M150.962 49.512C149.522 48.408 148.346 47.016 147.434 45.336C146.57 43.656 146.138 41.616 146.138 39.216C146.138 36.336 146.786 33.816 148.082 31.656C149.378 29.496 151.202 27.792 153.554 26.544C155.906 25.296 158.642 24.6 161.762 24.456C165.794 24.456 169.082 24.936 171.626 25.896C173.93 26.808 176.018 27.84 177.89 28.992L171.554 35.4C170.594 34.968 169.682 34.608 168.818 34.32C166.85 33.648 165.002 33.312 163.274 33.312C161.114 33.312 159.41 33.744 158.162 34.608C156.962 35.472 156.362 36.768 156.362 38.496C156.362 39.648 156.818 40.704 157.73 41.664C158.69 42.576 159.914 43.392 161.402 44.112C161.642 44.256 161.954 44.424 162.338 44.616L154.922 52.032C153.482 51.312 152.162 50.472 150.962 49.512ZM174.146 50.88C175.298 51.984 176.21 53.376 176.882 55.056C177.554 56.688 177.89 58.704 177.89 61.104C177.89 63.648 177.218 66.024 175.874 68.232C174.578 70.44 172.658 72.216 170.114 73.56C167.57 74.856 164.45 75.504 160.754 75.504C158.834 75.504 156.866 75.312 154.85 74.928C152.882 74.544 150.962 73.968 149.09 73.2C147.218 72.432 145.418 71.448 143.69 70.248L150.098 63.84C150.626 64.176 151.178 64.464 151.754 64.704C153.146 65.376 154.538 65.904 155.93 66.288C157.37 66.624 158.666 66.792 159.818 66.792C161.018 66.792 162.218 66.624 163.418 66.288C164.618 65.952 165.602 65.376 166.37 64.56C167.186 63.744 167.594 62.592 167.594 61.104C167.594 60.144 167.258 59.256 166.586 58.44C165.962 57.576 165.074 56.808 163.922 56.136C162.818 55.464 161.618 54.888 160.322 54.408C160.322 54.36 160.13 54.288 159.746 54.192L167.306 46.632C168.314 47.064 169.322 47.544 170.33 48.072C171.77 48.84 173.042 49.776 174.146 50.88ZM216.378 32.736C217.914 35.232 218.682 38.208 218.682 41.664C218.682 43.728 218.37 45.792 217.746 47.856C217.122 49.92 216.138 51.792 214.794 53.472C213.45 55.152 211.65 56.52 209.394 57.576C207.138 58.584 204.378 59.088 201.114 59.088H193.986V75H184.122V59.376L194.058 49.44H201.042C202.53 49.44 203.778 49.2 204.786 48.72C205.794 48.192 206.586 47.52 207.162 46.704C207.738 45.888 208.146 45.048 208.386 44.184C208.626 43.32 208.746 42.576 208.746 41.952C208.746 41.472 208.65 40.824 208.458 40.008C208.314 39.144 208.002 38.28 207.522 37.416C207.378 37.128 207.186 36.84 206.946 36.552L213.93 29.568C214.89 30.528 215.706 31.584 216.378 32.736ZM193.986 34.32V42.456L184.122 52.32V24.744H199.314C203.394 24.744 206.85 25.416 209.682 26.76L202.122 34.392C201.786 34.344 201.45 34.32 201.114 34.32H193.986ZM233.276 56.208C233.66 57.216 234.164 58.176 234.788 59.088L227.66 66.216C226.076 64.344 224.78 62.232 223.772 59.88C222.476 56.808 221.828 53.496 221.828 49.944C221.828 46.488 222.476 43.224 223.772 40.152C225.116 37.032 226.964 34.296 229.316 31.944C231.668 29.544 234.38 27.672 237.452 26.328C240.524 24.936 243.836 24.24 247.388 24.24C250.892 24.24 254.204 24.912 257.324 26.256C259.628 27.264 261.74 28.584 263.66 30.216L256.82 36.984C255.86 36.168 254.78 35.496 253.58 34.968C251.708 34.152 249.668 33.744 247.46 33.744C245.3 33.744 243.284 34.152 241.412 34.968C239.54 35.784 237.884 36.936 236.444 38.424C235.052 39.912 233.972 41.64 233.204 43.608C232.436 45.576 232.052 47.688 232.052 49.944C232.052 52.152 232.46 54.24 233.276 56.208ZM271.148 40.152C272.492 43.224 273.164 46.488 273.164 49.944C273.164 53.496 272.492 56.832 271.148 59.952C269.804 63.024 267.932 65.736 265.532 68.088C263.132 70.392 260.372 72.216 257.252 73.56C254.18 74.856 250.892 75.504 247.388 75.504C243.836 75.504 240.524 74.856 237.452 73.56C235.148 72.552 233.036 71.28 231.116 69.744L238.172 62.688C239.228 63.552 240.356 64.248 241.556 64.776C243.476 65.592 245.54 66 247.748 66C249.908 66 251.9 65.592 253.724 64.776C255.548 63.96 257.132 62.808 258.476 61.32C259.868 59.832 260.948 58.128 261.716 56.208C262.532 54.24 262.94 52.152 262.94 49.944C262.94 47.688 262.532 45.576 261.716 43.608C261.284 42.552 260.78 41.568 260.204 40.656L267.188 33.672C268.82 35.64 270.14 37.8 271.148 40.152ZM305.977 56.712L317.641 75H306.121L295.537 59.016H288.913V75H279.049V59.376L288.985 49.44H295.969C297.457 49.44 298.705 49.2 299.713 48.72C300.721 48.192 301.513 47.544 302.089 46.776C302.665 46.008 303.073 45.216 303.313 44.4C303.553 43.536 303.673 42.744 303.673 42.024C303.673 41.496 303.577 40.824 303.385 40.008C303.241 39.144 302.929 38.28 302.449 37.416C302.305 37.128 302.113 36.84 301.873 36.552L308.929 29.496C310.561 30.936 311.785 32.664 312.601 34.68C313.465 36.744 313.897 39.072 313.897 41.664C313.897 43.728 313.585 45.792 312.961 47.856C312.385 49.872 311.401 51.72 310.009 53.4C308.905 54.696 307.561 55.8 305.977 56.712ZM296.041 34.32H288.913V42.456L279.049 52.392V24.744H294.241C297.409 24.744 300.217 25.152 302.665 25.968C303.337 26.16 304.009 26.424 304.681 26.76L297.049 34.392C296.713 34.344 296.377 34.32 296.041 34.32ZM328.873 75V51.24L338.737 41.376V75H328.873ZM328.873 44.184V34.32H317.137V24.744H348.313L328.873 44.184ZM353.406 49.512C351.966 48.408 350.79 47.016 349.878 45.336C349.014 43.656 348.582 41.616 348.582 39.216C348.582 36.336 349.23 33.816 350.526 31.656C351.822 29.496 353.646 27.792 355.998 26.544C358.35 25.296 361.086 24.6 364.206 24.456C368.238 24.456 371.526 24.936 374.07 25.896C376.374 26.808 378.462 27.84 380.334 28.992L373.998 35.4C373.038 34.968 372.126 34.608 371.262 34.32C369.294 33.648 367.446 33.312 365.718 33.312C363.558 33.312 361.854 33.744 360.606 34.608C359.406 35.472 358.806 36.768 358.806 38.496C358.806 39.648 359.262 40.704 360.174 41.664C361.134 42.576 362.358 43.392 363.846 44.112C364.086 44.256 364.398 44.424 364.782 44.616L357.366 52.032C355.926 51.312 354.606 50.472 353.406 49.512ZM376.59 50.88C377.742 51.984 378.654 53.376 379.326 55.056C379.998 56.688 380.334 58.704 380.334 61.104C380.334 63.648 379.662 66.024 378.318 68.232C377.022 70.44 375.102 72.216 372.558 73.56C370.014 74.856 366.894 75.504 363.198 75.504C361.278 75.504 359.31 75.312 357.294 74.928C355.326 74.544 353.406 73.968 351.534 73.2C349.662 72.432 347.862 71.448 346.134 70.248L352.542 63.84C353.07 64.176 353.622 64.464 354.198 64.704C355.59 65.376 356.982 65.904 358.374 66.288C359.814 66.624 361.11 66.792 362.262 66.792C363.462 66.792 364.662 66.624 365.862 66.288C367.062 65.952 368.046 65.376 368.814 64.56C369.63 63.744 370.038 62.592 370.038 61.104C370.038 60.144 369.702 59.256 369.03 58.44C368.406 57.576 367.518 56.808 366.366 56.136C365.262 55.464 364.062 54.888 362.766 54.408C362.766 54.36 362.574 54.288 362.19 54.192L369.75 46.632C370.758 47.064 371.766 47.544 372.774 48.072C374.214 48.84 375.486 49.776 376.59 50.88Z" fill="url(#paint2_linear_124_382)"/>
<defs>
<linearGradient id="paint0_linear_124_382" x1="98" y1="19" x2="98" y2="83" gradientUnits="userSpaceOnUse">
<stop stop-color="#860038"/>
<stop offset="1" stop-color="white"/>
</linearGradient>
<linearGradient id="paint1_linear_124_382" x1="54" y1="19" x2="54" y2="83" gradientUnits="userSpaceOnUse">
<stop stop-color="#860038"/>
<stop offset="1" stop-color="white"/>
</linearGradient>
<linearGradient id="paint2_linear_124_382" x1="262.5" y1="19" x2="262.5" y2="83" gradientUnits="userSpaceOnUse">
<stop stop-color="#860038"/>
<stop offset="1" stop-color="white"/>
</linearGradient>
</defs>
</svg>
