<svg width="200" height="200" viewBox="0 0 200 200" fill="none" xmlns="http://www.w3.org/2000/svg">
<g clip-path="url(#clip0_124_354)">
<rect width="200" height="200" rx="30" fill="black"/>
<path d="M157.958 116.44L180.638 152H158.238L137.658 120.92H124.778V152H105.598V121.62L124.918 102.3H138.498C141.392 102.3 143.818 101.833 145.778 100.9C147.738 99.8733 149.278 98.6133 150.398 97.12C151.518 95.6267 152.312 94.0867 152.778 92.5C153.245 90.82 153.478 89.28 153.478 87.88C153.478 86.8533 153.292 85.5467 152.918 83.96C152.638 82.28 152.032 80.6 151.098 78.92C150.818 78.36 150.445 77.8 149.978 77.24L163.698 63.52C166.872 66.32 169.252 69.68 170.838 73.6C172.518 77.6133 173.358 82.14 173.358 87.18C173.358 91.1933 172.752 95.2067 171.538 99.22C170.418 103.14 168.505 106.733 165.798 110C163.652 112.52 161.038 114.667 157.958 116.44ZM138.638 72.9H124.778V88.72L105.598 108.04V54.28H135.138C141.298 54.28 146.758 55.0733 151.518 56.66C152.825 57.0333 154.132 57.5467 155.438 58.2L140.598 73.04C139.945 72.9467 139.292 72.9 138.638 72.9Z" fill="url(#paint0_linear_124_354)"/>
<path d="M42.5873 116.44L19.9073 152H42.3073L62.8873 120.92H75.7673V152H94.9473V121.62L75.6273 102.3H62.0473C59.154 102.3 56.7273 101.833 54.7673 100.9C52.8073 99.8733 51.2673 98.6133 50.1473 97.12C49.0273 95.6267 48.234 94.0867 47.7673 92.5C47.3006 90.82 47.0673 89.28 47.0673 87.88C47.0673 86.8533 47.254 85.5467 47.6273 83.96C47.9073 82.28 48.514 80.6 49.4473 78.92C49.7273 78.36 50.1006 77.8 50.5673 77.24L36.8473 63.52C33.674 66.32 31.294 69.68 29.7073 73.6C28.0273 77.6133 27.1873 82.14 27.1873 87.18C27.1873 91.1933 27.794 95.2067 29.0073 99.22C30.1273 103.14 32.0406 106.733 34.7473 110C36.894 112.52 39.5073 114.667 42.5873 116.44ZM61.9073 72.9H75.7673V88.72L94.9473 108.04V54.28H65.4073C59.2473 54.28 53.7873 55.0733 49.0273 56.66C47.7206 57.0333 46.414 57.5467 45.1073 58.2L59.9473 73.04C60.6006 72.9467 61.254 72.9 61.9073 72.9Z" fill="url(#paint1_linear_124_354)"/>
</g>
<defs>
<linearGradient id="paint0_linear_124_354" x1="131.182" y1="43" x2="131.182" y2="157.286" gradientUnits="userSpaceOnUse">
<stop stop-color="#860038"/>
<stop offset="1" stop-color="white"/>
</linearGradient>
<linearGradient id="paint1_linear_124_354" x1="69.3637" y1="43" x2="69.3637" y2="157.286" gradientUnits="userSpaceOnUse">
<stop stop-color="#860038"/>
<stop offset="1" stop-color="white"/>
</linearGradient>
<clipPath id="clip0_124_354">
<rect width="200" height="200" fill="white"/>
</clipPath>
</defs>
</svg>
